<svg width="421" height="120" viewBox="0 0 421 120" fill="none" xmlns="http://www.w3.org/2000/svg">
<rect x="0.5" y="0.5" width="420" height="119" rx="7.5" fill="white"/>
<rect x="0.5" y="0.5" width="420" height="119" rx="7.5" stroke="#CED1D2"/>
<path d="M88.25 34C88.25 41.3178 82.3178 47.25 75 47.25C67.6822 47.25 61.75 41.3178 61.75 34C61.75 26.6822 67.6822 20.75 75 20.75C82.3178 20.75 88.25 26.6822 88.25 34Z" stroke="#5F65FF" stroke-width="1.5"/>
<path d="M68.8984 29.4922L71.7918 39.7796L74.6851 29.4922" stroke="#5F65FF" stroke-width="2" stroke-linecap="round" stroke-linejoin="round"/>
<path d="M74.6875 29.4922L77.5808 39.7796L80.4742 29.4922" stroke="#5F65FF" stroke-width="2" stroke-linecap="round" stroke-linejoin="round"/>
<path d="M68.2578 33.2793H74.6874H81.1171" stroke="#5F65FF" stroke-width="2" stroke-linecap="round" stroke-linejoin="round"/>
<path d="M50.1496 71.672V73.016H53.2696V71.672H50.1496ZM50.0536 75.336V76.68H53.2216V75.336H50.0536ZM55.3816 67.704V82.328H56.9976V67.704H55.3816ZM52.4216 68.056V81.624H53.9896V68.056H52.4216ZM49.1416 69.496V69.816C49.1416 73.304 47.7656 76.008 44.3896 78.04L45.3496 79.224C49.3496 76.856 50.7576 73.464 50.7576 69.496H49.1416ZM45.1256 69.496V70.856H49.7496V69.496H45.1256ZM62.7724 69.448V70.28C62.7724 72.152 61.4604 73.864 59.2044 74.552L60.0364 75.864C62.6124 75.048 64.1324 72.872 64.1324 70.28V69.448H62.7724ZM63.0924 69.448V70.28C63.0924 72.744 64.5804 74.824 67.1404 75.608L67.9404 74.312C65.7164 73.64 64.4684 72.024 64.4684 70.28V69.448H63.0924ZM59.6844 68.968V70.344H67.5404V68.968H59.6844ZM62.7884 75.24V78.536H64.4524V75.24H62.7884ZM70.0844 73.64V75.032H72.7244V73.64H70.0844ZM68.9004 67.704V82.328H70.5804V67.704H68.9004ZM59.2524 79.4C61.7484 79.4 65.0924 79.4 68.1804 78.84L68.0524 77.608C65.0924 78.024 61.5884 78.024 59.0444 78.024L59.2524 79.4ZM87.9009 67.72V78.312H89.5809V67.72H87.9009ZM80.0289 80.68V82.04H89.9969V80.68H80.0289ZM80.0289 77.24V81.192H81.7089V77.24H80.0289ZM81.6929 68.696C79.4849 68.696 77.8049 70.2 77.8049 72.344C77.8049 74.456 79.4849 75.992 81.6929 75.992C83.9009 75.992 85.5649 74.456 85.5649 72.344C85.5649 70.2 83.9009 68.696 81.6929 68.696ZM81.6929 70.136C82.9729 70.136 83.9329 71 83.9329 72.344C83.9329 73.656 82.9729 74.52 81.6929 74.52C80.4129 74.52 79.4369 73.656 79.4369 72.344C79.4369 71 80.4129 70.136 81.6929 70.136ZM92.2356 74.568V75.912H105.452V74.568H92.2356ZM98.8276 76.968C95.6916 76.968 93.7876 77.944 93.7876 79.64C93.7876 81.336 95.6916 82.312 98.8276 82.312C101.964 82.312 103.868 81.336 103.868 79.64C103.868 77.944 101.964 76.968 98.8276 76.968ZM98.8276 78.28C100.972 78.28 102.172 78.744 102.172 79.64C102.172 80.536 100.972 81 98.8276 81C96.6836 81 95.4836 80.536 95.4836 79.64C95.4836 78.744 96.6836 78.28 98.8276 78.28ZM97.7236 69.112V69.512C97.7236 70.936 95.7716 72.232 92.9076 72.52L93.4836 73.832C96.8436 73.48 99.2116 71.784 99.2116 69.512V69.112H97.7236ZM98.4916 69.112V69.512C98.4916 71.784 100.86 73.48 104.204 73.832L104.796 72.52C101.916 72.232 99.9636 70.936 99.9636 69.512V69.112H98.4916ZM93.4516 68.424V69.768H104.268V68.424H93.4516Z" fill="#363636"/>
<path d="M46.2753 94.436V107.092H47.4373V94.436H46.2753ZM42.5653 95.794V95.99C42.5653 99.35 40.8713 102.038 37.2173 103.802L37.8333 104.74C42.0613 102.668 43.7133 99.462 43.7133 95.794H42.5653ZM37.7913 95.794V96.746H43.0693V95.794H37.7913ZM54.8982 95.626V96.004C54.8982 97.558 52.8682 98.818 50.6282 99.112L51.0622 100.05C53.6522 99.658 55.9342 98.146 55.9342 96.004V95.626H54.8982ZM55.3882 95.626V96.004C55.3882 98.146 57.6702 99.658 60.2462 100.05L60.6942 99.112C58.4542 98.818 56.4102 97.544 56.4102 96.004V95.626H55.3882ZM50.9782 95.052V95.99H60.3442V95.052H50.9782ZM51.4122 105.86V106.812H60.1062V105.86H51.4122ZM51.4122 103.242V106.238H52.5742V103.242H51.4122ZM49.9282 101.268V102.206H61.4082V101.268H49.9282ZM55.0662 99.168V101.646H56.2142V99.168H55.0662ZM67.7211 97.95V98.888H70.5351V97.95H67.7211ZM67.6231 101.128V102.066H70.5071V101.128H67.6231ZM72.4531 94.436V107.092H73.5731V94.436H72.4531ZM69.9191 94.758V106.448H71.0111V94.758H69.9191ZM67.0911 96.032V96.242C67.0911 99.224 65.7611 101.744 62.8071 103.536L63.4791 104.362C66.8811 102.332 68.2111 99.35 68.2111 96.032H67.0911ZM63.3671 96.032V96.984H67.5531V96.032H63.3671ZM78.948 95.948V96.69C78.948 98.412 77.632 99.91 75.756 100.512L76.33 101.422C78.444 100.722 79.9 98.916 79.9 96.69V95.948H78.948ZM79.158 95.948V96.69C79.158 98.804 80.572 100.54 82.672 101.212L83.218 100.302C81.37 99.728 80.11 98.3 80.11 96.69V95.948H79.158ZM76.134 95.598V96.564H82.91V95.598H76.134ZM78.948 100.89V103.83H80.11V100.89H78.948ZM85.08 99.686V100.666H87.418V99.686H85.08ZM84.254 94.436V107.092H85.416V94.436H84.254ZM75.7 104.446C77.884 104.46 80.852 104.446 83.554 103.97L83.456 103.102C80.852 103.48 77.772 103.48 75.546 103.48L75.7 104.446ZM97.7769 94.45V103.69H98.9529V94.45H97.7769ZM90.8189 105.86V106.812H99.3309V105.86H90.8189ZM90.8189 102.738V106.182H91.9669V102.738H90.8189ZM92.1629 95.318C90.2729 95.318 88.8589 96.606 88.8589 98.44C88.8589 100.26 90.2729 101.562 92.1629 101.562C94.0529 101.562 95.4529 100.26 95.4529 98.44C95.4529 96.606 94.0529 95.318 92.1629 95.318ZM92.1629 96.326C93.3949 96.326 94.3329 97.194 94.3329 98.44C94.3329 99.672 93.3949 100.54 92.1629 100.54C90.9309 100.54 89.9929 99.672 89.9929 98.44C89.9929 97.194 90.9309 96.326 92.1629 96.326ZM101.444 100.456V101.394H112.882V100.456H101.444ZM107.156 102.486C104.454 102.486 102.816 103.326 102.816 104.782C102.816 106.238 104.454 107.064 107.156 107.064C109.858 107.064 111.496 106.238 111.496 104.782C111.496 103.326 109.858 102.486 107.156 102.486ZM107.156 103.41C109.144 103.41 110.32 103.9 110.32 104.782C110.32 105.65 109.144 106.154 107.156 106.154C105.182 106.154 103.992 105.65 103.992 104.782C103.992 103.9 105.182 103.41 107.156 103.41ZM106.414 95.584V95.962C106.414 97.39 104.356 98.524 102.088 98.776L102.508 99.686C105.126 99.378 107.45 97.992 107.45 95.962V95.584H106.414ZM106.904 95.584V95.962C106.904 97.992 109.214 99.378 111.832 99.686L112.252 98.776C109.984 98.524 107.926 97.39 107.926 95.962V95.584H106.904ZM102.494 95.08V96.018H111.86V95.08H102.494Z" fill="#868686"/>
</svg>
