<svg width="480" height="96" viewBox="0 0 480 96" fill="none" xmlns="http://www.w3.org/2000/svg">
<g clip-path="url(#clip0_55_2738)">
<rect width="480" height="96" fill="url(#paint0_linear_55_2738)"/>
<circle cx="457.903" cy="230.903" r="182.27" transform="rotate(-16.6736 457.903 230.903)" fill="url(#paint1_linear_55_2738)"/>
<circle cx="118.851" cy="-24.1482" r="93.5099" transform="rotate(90.8282 118.851 -24.1482)" fill="url(#paint2_linear_55_2738)"/>
<path d="M178.187 59.256C175.798 59.256 173.91 58.552 172.523 57.144C171.158 55.7147 170.475 53.7627 170.475 51.288C170.475 49.688 170.784 48.28 171.403 47.064C172.022 45.848 172.875 44.8987 173.963 44.216C175.072 43.5333 176.342 43.192 177.771 43.192C179.84 43.192 181.451 43.864 182.603 45.208C183.755 46.552 184.331 48.3973 184.331 50.744C184.331 51.3413 184.032 51.64 183.435 51.64H172.395C172.459 53.56 172.982 55.0427 173.963 56.088C174.966 57.112 176.352 57.624 178.123 57.624C178.912 57.624 179.67 57.528 180.395 57.336C181.142 57.1227 181.867 56.7493 182.571 56.216C182.955 55.96 183.286 55.9067 183.563 56.056C183.84 56.184 183.99 56.408 184.011 56.728C184.054 57.0267 183.894 57.304 183.531 57.56C182.848 58.1147 182.016 58.5413 181.035 58.84C180.075 59.1173 179.126 59.256 178.187 59.256ZM177.803 44.76C176.182 44.76 174.912 45.272 173.995 46.296C173.099 47.2987 172.576 48.6 172.427 50.2H182.571C182.528 48.4933 182.102 47.16 181.291 46.2C180.48 45.24 179.318 44.76 177.803 44.76ZM189.654 59.192C189.014 59.192 188.694 58.8507 188.694 58.168V37.24C188.694 36.5787 189.014 36.248 189.654 36.248C190.315 36.248 190.646 36.5787 190.646 37.24V46.808H190.71L201.686 36.824C202.134 36.44 202.582 36.248 203.03 36.248C203.457 36.248 203.723 36.3973 203.83 36.696C203.937 36.9733 203.83 37.2613 203.51 37.56L192.566 47.448L204.054 57.688C204.438 58.0507 204.555 58.392 204.406 58.712C204.278 59.032 204.001 59.192 203.574 59.192C203.318 59.192 203.094 59.1387 202.902 59.032C202.731 58.9467 202.529 58.7973 202.294 58.584L190.71 48.28H190.646V58.168C190.646 58.8507 190.315 59.192 189.654 59.192ZM213.407 59.192C212.746 59.192 212.415 58.84 212.415 58.136V48.184L204.703 37.656C204.447 37.3147 204.394 36.9947 204.543 36.696C204.693 36.3973 204.949 36.248 205.311 36.248C205.759 36.248 206.133 36.4613 206.431 36.888L213.439 46.456L220.479 36.888C220.778 36.4613 221.141 36.248 221.567 36.248C221.93 36.248 222.175 36.3973 222.303 36.696C222.453 36.9733 222.389 37.304 222.111 37.688L214.399 48.216V58.136C214.399 58.84 214.069 59.192 213.407 59.192ZM233.696 59.256C231.541 59.256 229.696 58.7973 228.16 57.88C226.624 56.9413 225.44 55.608 224.608 53.88C223.797 52.152 223.392 50.0933 223.392 47.704C223.392 45.336 223.797 43.288 224.608 41.56C225.44 39.832 226.624 38.5093 228.16 37.592C229.696 36.6533 231.541 36.184 233.696 36.184C235.104 36.184 236.416 36.3973 237.632 36.824C238.848 37.2293 239.893 37.816 240.768 38.584C241.13 38.8827 241.29 39.2133 241.248 39.576C241.205 39.9173 241.034 40.1627 240.736 40.312C240.437 40.4613 240.096 40.3867 239.712 40.088C238.09 38.7013 236.096 38.008 233.728 38.008C231.082 38.008 229.045 38.8613 227.616 40.568C226.208 42.2533 225.504 44.632 225.504 47.704C225.504 50.7973 226.208 53.1973 227.616 54.904C229.045 56.5893 231.082 57.432 233.728 57.432C236.074 57.432 238.08 56.728 239.744 55.32C240.128 55.0213 240.458 54.9467 240.736 55.096C241.034 55.2453 241.205 55.4907 241.248 55.832C241.312 56.1733 241.184 56.4827 240.864 56.76C239.008 58.424 236.618 59.256 233.696 59.256ZM260.348 59.192C259.686 59.192 259.356 58.8507 259.356 58.168V38.2H251.708C251.068 38.2 250.748 37.9013 250.748 37.304C250.748 36.728 251.068 36.44 251.708 36.44H269.02C269.638 36.44 269.948 36.728 269.948 37.304C269.948 37.9013 269.638 38.2 269.02 38.2H261.34V58.168C261.34 58.8507 261.009 59.192 260.348 59.192ZM276.718 59.256C274.329 59.256 272.441 58.552 271.054 57.144C269.689 55.7147 269.006 53.7627 269.006 51.288C269.006 49.688 269.316 48.28 269.934 47.064C270.553 45.848 271.406 44.8987 272.494 44.216C273.604 43.5333 274.873 43.192 276.302 43.192C278.372 43.192 279.982 43.864 281.134 45.208C282.286 46.552 282.862 48.3973 282.862 50.744C282.862 51.3413 282.564 51.64 281.966 51.64H270.926C270.99 53.56 271.513 55.0427 272.494 56.088C273.497 57.112 274.884 57.624 276.654 57.624C277.444 57.624 278.201 57.528 278.926 57.336C279.673 57.1227 280.398 56.7493 281.102 56.216C281.486 55.96 281.817 55.9067 282.094 56.056C282.372 56.184 282.521 56.408 282.542 56.728C282.585 57.0267 282.425 57.304 282.062 57.56C281.38 58.1147 280.548 58.5413 279.566 58.84C278.606 59.1173 277.657 59.256 276.718 59.256ZM276.334 44.76C274.713 44.76 273.444 45.272 272.526 46.296C271.63 47.2987 271.108 48.6 270.958 50.2H281.102C281.06 48.4933 280.633 47.16 279.822 46.2C279.012 45.24 277.849 44.76 276.334 44.76ZM291.897 59.256C290.937 59.256 289.977 59.128 289.017 58.872C288.079 58.616 287.183 58.1787 286.329 57.56C286.052 57.3893 285.924 57.1547 285.945 56.856C285.967 56.536 286.084 56.2907 286.297 56.12C286.532 55.9493 286.82 55.9707 287.161 56.184C287.993 56.7387 288.804 57.1227 289.593 57.336C290.383 57.5493 291.172 57.656 291.961 57.656C293.284 57.656 294.276 57.4213 294.937 56.952C295.62 56.4613 295.961 55.7893 295.961 54.936C295.961 54.2747 295.737 53.752 295.289 53.368C294.841 52.984 294.137 52.6747 293.177 52.44L290.393 51.8C287.769 51.2027 286.457 49.848 286.457 47.736C286.457 46.3707 286.991 45.272 288.057 44.44C289.124 43.608 290.532 43.192 292.281 43.192C293.199 43.192 294.084 43.3307 294.937 43.608C295.812 43.8853 296.569 44.312 297.209 44.888C297.487 45.1013 297.604 45.3573 297.561 45.656C297.519 45.9547 297.369 46.1787 297.113 46.328C296.879 46.4773 296.601 46.4347 296.281 46.2C295.663 45.7307 295.012 45.3893 294.329 45.176C293.647 44.9413 292.953 44.824 292.249 44.824C291.012 44.824 290.052 45.08 289.369 45.592C288.708 46.104 288.377 46.7973 288.377 47.672C288.377 48.3333 288.58 48.8667 288.985 49.272C289.391 49.6773 290.052 49.9867 290.969 50.2L293.753 50.84C295.14 51.16 296.175 51.64 296.857 52.28C297.54 52.8987 297.881 53.7413 297.881 54.808C297.881 56.1947 297.337 57.2827 296.249 58.072C295.161 58.8613 293.711 59.256 291.897 59.256ZM307.822 59.256C306.094 59.256 304.793 58.7867 303.918 57.848C303.065 56.9093 302.638 55.5653 302.638 53.816V45.048H300.27C299.652 45.048 299.342 44.7813 299.342 44.248C299.342 43.736 299.652 43.48 300.27 43.48H302.638V39.48C302.638 38.8187 302.969 38.488 303.63 38.488C304.27 38.488 304.59 38.8187 304.59 39.48V43.48H308.91C309.508 43.48 309.806 43.736 309.806 44.248C309.806 44.7813 309.508 45.048 308.91 45.048H304.59V53.56C304.59 54.8613 304.857 55.8533 305.39 56.536C305.924 57.2187 306.809 57.56 308.046 57.56C308.473 57.56 308.825 57.5173 309.102 57.432C309.38 57.3253 309.625 57.272 309.838 57.272C310.222 57.272 310.414 57.5387 310.414 58.072C310.414 58.2427 310.372 58.4133 310.286 58.584C310.222 58.7333 310.094 58.84 309.902 58.904C309.668 58.9893 309.348 59.064 308.942 59.128C308.537 59.2133 308.164 59.256 307.822 59.256Z" fill="white"/>
</g>
<defs>
<linearGradient id="paint0_linear_55_2738" x1="240" y1="0" x2="240" y2="94.16" gradientUnits="userSpaceOnUse">
<stop stop-color="#373EFF"/>
<stop offset="0.90625" stop-color="#5F65FF"/>
</linearGradient>
<linearGradient id="paint1_linear_55_2738" x1="457.903" y1="48.6334" x2="457.903" y2="413.174" gradientUnits="userSpaceOnUse">
<stop stop-color="#373EFF"/>
<stop offset="1" stop-color="#5F65FF"/>
</linearGradient>
<linearGradient id="paint2_linear_55_2738" x1="118.851" y1="-117.658" x2="118.851" y2="69.3617" gradientUnits="userSpaceOnUse">
<stop stop-color="#373EFF"/>
<stop offset="1" stop-color="#5F65FF"/>
</linearGradient>
<clipPath id="clip0_55_2738">
<rect width="480" height="96" fill="white"/>
</clipPath>
</defs>
</svg>
