<svg width="420" height="120" viewBox="0 0 420 120" fill="none" xmlns="http://www.w3.org/2000/svg">
<rect x="0.5" y="0.5" width="419" height="119" rx="7.5" fill="white"/>
<rect x="0.5" y="0.5" width="419" height="119" rx="7.5" stroke="#CED1D2"/>
<path d="M91.2 22H58.8C57.8059 22 57 22.6716 57 23.5V44.5C57 45.3284 57.8059 46 58.8 46H91.2C92.1941 46 93 45.3284 93 44.5V23.5C93 22.6716 92.1941 22 91.2 22Z" fill="white" stroke="#363636" stroke-width="1.5" stroke-linejoin="round"/>
<path d="M81.9746 34.4612C82.8697 34.4612 83.7282 34.0965 84.3611 33.4473C84.994 32.7981 85.3496 31.9177 85.3496 30.9996C85.3496 30.0816 84.994 29.2011 84.3611 28.5519C83.7282 27.9028 82.8697 27.5381 81.9746 27.5381C81.0795 27.5381 80.2211 27.9028 79.5881 28.5519C78.9552 29.2011 78.5996 30.0816 78.5996 30.9996C78.5996 31.9177 78.9552 32.7981 79.5881 33.4473C80.2211 34.0965 81.0795 34.4612 81.9746 34.4612V34.4612Z" stroke="#373EFF" stroke-width="1.5" stroke-linejoin="round"/>
<path d="M87.1496 39.9999C87.1496 38.531 86.5807 37.1223 85.568 36.0836C84.5553 35.0449 83.1818 34.4614 81.7496 34.4614C80.3174 34.4614 78.9439 35.0449 77.9312 36.0836C76.9185 37.1223 76.3496 38.531 76.3496 39.9999" stroke="#373EFF" stroke-width="1.5" stroke-linecap="round" stroke-linejoin="round"/>
<path d="M62.8496 35.3848H71.8496" stroke="#363636" stroke-width="1.5" stroke-linecap="round" stroke-linejoin="round"/>
<path d="M62.8496 39.0767H71.8496" stroke="#363636" stroke-width="1.5" stroke-linecap="round" stroke-linejoin="round"/>
<path d="M62.8496 29.3848H68.0471" stroke="#363636" stroke-width="1.5" stroke-linecap="round" stroke-linejoin="round"/>
<path d="M47.5103 67.72V78.408H49.1903V67.72H47.5103ZM39.6383 80.68V82.04H49.6063V80.68H39.6383ZM39.6383 77.4V81.352H41.3183V77.4H39.6383ZM40.7743 68.52V69.976C40.7743 72.088 39.5103 74.184 37.1903 75.032L38.0543 76.376C40.6783 75.384 42.1663 72.824 42.1663 69.976V68.52H40.7743ZM41.0943 68.52V69.976C41.0943 72.776 42.5663 75.176 45.1423 76.104L46.0063 74.776C43.7343 73.992 42.4703 72.04 42.4703 69.976V68.52H41.0943ZM51.845 75.32V76.664H65.093V75.32H51.845ZM57.765 76.024V79.256H59.429V76.024H57.765ZM53.461 80.68V82.04H63.621V80.68H53.461ZM53.461 78.04V81.224H55.125V78.04H53.461ZM53.573 68.168V74.088H63.365V68.168H61.701V69.864H55.221V68.168H53.573ZM55.221 71.144H61.701V72.76H55.221V71.144ZM66.5638 74.568V75.912H79.7798V74.568H66.5638ZM73.1558 76.968C70.0198 76.968 68.1158 77.944 68.1158 79.64C68.1158 81.336 70.0198 82.312 73.1558 82.312C76.2918 82.312 78.1958 81.336 78.1958 79.64C78.1958 77.944 76.2918 76.968 73.1558 76.968ZM73.1558 78.28C75.2998 78.28 76.4998 78.744 76.4998 79.64C76.4998 80.536 75.2998 81 73.1558 81C71.0118 81 69.8118 80.536 69.8118 79.64C69.8118 78.744 71.0118 78.28 73.1558 78.28ZM72.0518 69.112V69.512C72.0518 70.936 70.0998 72.232 67.2358 72.52L67.8118 73.832C71.1718 73.48 73.5398 71.784 73.5398 69.512V69.112H72.0518ZM72.8198 69.112V69.512C72.8198 71.784 75.1878 73.48 78.5318 73.832L79.1238 72.52C76.2438 72.232 74.2917 70.936 74.2917 69.512V69.112H72.8198ZM67.7798 68.424V69.768H78.5958V68.424H67.7798ZM95.2603 67.72V78.312H96.9403V67.72H95.2603ZM87.3883 80.68V82.04H97.3563V80.68H87.3883ZM87.3883 77.24V81.192H89.0683V77.24H87.3883ZM89.0523 68.696C86.8443 68.696 85.1643 70.2 85.1643 72.344C85.1643 74.456 86.8443 75.992 89.0523 75.992C91.2603 75.992 92.9243 74.456 92.9243 72.344C92.9243 70.2 91.2603 68.696 89.0523 68.696ZM89.0523 70.136C90.3323 70.136 91.2923 71 91.2923 72.344C91.2923 73.656 90.3323 74.52 89.0523 74.52C87.7723 74.52 86.7963 73.656 86.7963 72.344C86.7963 71 87.7723 70.136 89.0523 70.136ZM99.595 74.568V75.912H112.811V74.568H99.595ZM106.187 76.968C103.051 76.968 101.147 77.944 101.147 79.64C101.147 81.336 103.051 82.312 106.187 82.312C109.323 82.312 111.227 81.336 111.227 79.64C111.227 77.944 109.323 76.968 106.187 76.968ZM106.187 78.28C108.331 78.28 109.531 78.744 109.531 79.64C109.531 80.536 108.331 81 106.187 81C104.043 81 102.843 80.536 102.843 79.64C102.843 78.744 104.043 78.28 106.187 78.28ZM105.083 69.112V69.512C105.083 70.936 103.131 72.232 100.267 72.52L100.843 73.832C104.203 73.48 106.571 71.784 106.571 69.512V69.112H105.083ZM105.851 69.112V69.512C105.851 71.784 108.219 73.48 111.563 73.832L112.155 72.52C109.275 72.232 107.323 70.936 107.323 69.512V69.112H105.851ZM100.811 68.424V69.768H111.627V68.424H100.811Z" fill="#363636"/>
<path d="M33.7506 106.196C36.3266 106.196 38.1186 104.124 38.1186 100.834C38.1186 97.558 36.3266 95.556 33.7506 95.556C31.1606 95.556 29.3686 97.544 29.3686 100.834C29.3686 104.124 31.1606 106.196 33.7506 106.196ZM33.7506 105.048C31.9026 105.048 30.6986 103.396 30.6986 100.834C30.6986 98.272 31.9026 96.69 33.7506 96.69C35.5846 96.69 36.8026 98.272 36.8026 100.834C36.8026 103.396 35.5846 105.048 33.7506 105.048ZM44.2253 106.196C45.5553 106.196 46.5493 105.664 47.3613 104.712L46.6613 103.9C46.0033 104.628 45.2473 105.048 44.2813 105.048C42.3213 105.048 41.0893 103.438 41.0893 100.848C41.0893 98.286 42.3773 96.69 44.3233 96.69C45.1913 96.69 45.8773 97.082 46.4093 97.656L47.1233 96.816C46.5213 96.158 45.5553 95.556 44.3093 95.556C41.7053 95.556 39.7593 97.572 39.7593 100.876C39.7593 104.208 41.6633 106.196 44.2253 106.196ZM49.275 106H50.577V101.66H52.481C54.567 101.66 56.065 100.68 56.065 98.622C56.065 96.494 54.567 95.738 52.481 95.738H49.275V106ZM50.577 100.61V96.802H52.299C53.895 96.802 54.777 97.278 54.777 98.622C54.777 99.952 53.895 100.61 52.299 100.61H50.577ZM54.917 106H56.373L53.237 100.638L52.229 101.31L54.917 106ZM64.4514 109.92H65.3474V94.268H64.4514V109.92ZM73.9877 95.822V97.11C73.9877 98.916 72.6997 100.554 70.7957 101.226L71.3977 102.15C73.5257 101.38 74.9537 99.434 74.9537 97.11V95.822H73.9877ZM74.2117 95.822V97.11C74.2117 99.336 75.6677 101.184 77.7677 101.898L78.3697 100.988C76.4937 100.358 75.1777 98.818 75.1777 97.11V95.822H74.2117ZM71.1037 95.486V96.424H78.0337V95.486H71.1037ZM79.8257 94.45V103.704H81.0017V94.45H79.8257ZM72.8677 105.86V106.812H81.3797V105.86H72.8677ZM72.8677 102.836V106.28H74.0157V102.836H72.8677ZM87.6366 95.024C85.7606 95.024 84.4166 96.074 84.4166 97.628C84.4166 99.168 85.7606 100.246 87.6366 100.246C89.5266 100.246 90.8706 99.168 90.8706 97.628C90.8706 96.074 89.5266 95.024 87.6366 95.024ZM87.6366 95.99C88.8686 95.99 89.7506 96.662 89.7506 97.628C89.7506 98.608 88.8686 99.266 87.6366 99.266C86.4046 99.266 85.5226 98.608 85.5226 97.628C85.5226 96.662 86.4046 95.99 87.6366 95.99ZM87.1186 101.646V106.7H88.2806V101.646H87.1186ZM92.7186 94.436V107.106H93.8666V94.436H92.7186ZM83.6326 102.276C85.9426 102.276 89.0506 102.234 91.9066 101.716L91.8226 100.848C89.0366 101.268 85.8306 101.296 83.4786 101.296L83.6326 102.276ZM99.6895 100.372V101.996H100.852V100.372H99.6895ZM105.024 94.45V102.934H106.186V94.45H105.024ZM105.696 98.272V99.238H108.034V98.272H105.696ZM96.4555 102.57C98.6675 102.556 101.664 102.542 104.366 102.066L104.268 101.24C101.65 101.618 98.5695 101.618 96.3015 101.618L96.4555 102.57ZM97.8695 103.564V104.488H105.024V107.092H106.186V103.564H97.8695ZM96.6235 95.584V96.452H103.89V95.584H96.6235ZM100.264 96.942C98.4715 96.942 97.3095 97.656 97.3095 98.818C97.3095 99.98 98.4715 100.694 100.264 100.694C102.042 100.694 103.204 99.98 103.204 98.818C103.204 97.656 102.042 96.942 100.264 96.942ZM100.264 97.74C101.384 97.74 102.112 98.146 102.112 98.818C102.112 99.462 101.384 99.882 100.264 99.882C99.1295 99.882 98.4015 99.462 98.4015 98.818C98.4015 98.146 99.1295 97.74 100.264 97.74ZM99.6895 94.338V96.004H100.852V94.338H99.6895ZM118.462 94.45V103.69H119.638V94.45H118.462ZM111.504 105.86V106.812H120.016V105.86H111.504ZM111.504 102.738V106.182H112.652V102.738H111.504ZM112.848 95.318C110.958 95.318 109.544 96.606 109.544 98.44C109.544 100.26 110.958 101.562 112.848 101.562C114.738 101.562 116.138 100.26 116.138 98.44C116.138 96.606 114.738 95.318 112.848 95.318ZM112.848 96.326C114.08 96.326 115.018 97.194 115.018 98.44C115.018 99.672 114.08 100.54 112.848 100.54C111.616 100.54 110.678 99.672 110.678 98.44C110.678 97.194 111.616 96.326 112.848 96.326Z" fill="#868686"/>
<path d="M223.25 34C223.25 41.3178 217.318 47.25 210 47.25C202.682 47.25 196.75 41.3178 196.75 34C196.75 26.6822 202.682 20.75 210 20.75C217.318 20.75 223.25 26.6822 223.25 34Z" stroke="#5F65FF" stroke-width="1.5"/>
<path d="M203.898 29.4922L206.792 39.7796L209.685 29.4922" stroke="#5F65FF" stroke-width="2" stroke-linecap="round" stroke-linejoin="round"/>
<path d="M209.688 29.4922L212.581 39.7796L215.474 29.4922" stroke="#5F65FF" stroke-width="2" stroke-linecap="round" stroke-linejoin="round"/>
<path d="M203.258 33.2793H209.687H216.117" stroke="#5F65FF" stroke-width="2" stroke-linecap="round" stroke-linejoin="round"/>
<path d="M185.15 71.672V73.016H188.27V71.672H185.15ZM185.054 75.336V76.68H188.222V75.336H185.054ZM190.382 67.704V82.328H191.998V67.704H190.382ZM187.422 68.056V81.624H188.99V68.056H187.422ZM184.142 69.496V69.816C184.142 73.304 182.766 76.008 179.39 78.04L180.35 79.224C184.35 76.856 185.758 73.464 185.758 69.496H184.142ZM180.126 69.496V70.856H184.75V69.496H180.126ZM197.772 69.448V70.28C197.772 72.152 196.46 73.864 194.204 74.552L195.036 75.864C197.612 75.048 199.132 72.872 199.132 70.28V69.448H197.772ZM198.092 69.448V70.28C198.092 72.744 199.58 74.824 202.14 75.608L202.94 74.312C200.716 73.64 199.468 72.024 199.468 70.28V69.448H198.092ZM194.684 68.968V70.344H202.54V68.968H194.684ZM197.788 75.24V78.536H199.452V75.24H197.788ZM205.084 73.64V75.032H207.724V73.64H205.084ZM203.9 67.704V82.328H205.58V67.704H203.9ZM194.252 79.4C196.748 79.4 200.092 79.4 203.18 78.84L203.052 77.608C200.092 78.024 196.588 78.024 194.044 78.024L194.252 79.4ZM222.901 67.72V78.312H224.581V67.72H222.901ZM215.029 80.68V82.04H224.997V80.68H215.029ZM215.029 77.24V81.192H216.709V77.24H215.029ZM216.693 68.696C214.485 68.696 212.805 70.2 212.805 72.344C212.805 74.456 214.485 75.992 216.693 75.992C218.901 75.992 220.565 74.456 220.565 72.344C220.565 70.2 218.901 68.696 216.693 68.696ZM216.693 70.136C217.973 70.136 218.933 71 218.933 72.344C218.933 73.656 217.973 74.52 216.693 74.52C215.413 74.52 214.437 73.656 214.437 72.344C214.437 71 215.413 70.136 216.693 70.136ZM227.236 74.568V75.912H240.452V74.568H227.236ZM233.828 76.968C230.692 76.968 228.788 77.944 228.788 79.64C228.788 81.336 230.692 82.312 233.828 82.312C236.964 82.312 238.868 81.336 238.868 79.64C238.868 77.944 236.964 76.968 233.828 76.968ZM233.828 78.28C235.972 78.28 237.172 78.744 237.172 79.64C237.172 80.536 235.972 81 233.828 81C231.684 81 230.484 80.536 230.484 79.64C230.484 78.744 231.684 78.28 233.828 78.28ZM232.724 69.112V69.512C232.724 70.936 230.772 72.232 227.908 72.52L228.484 73.832C231.844 73.48 234.212 71.784 234.212 69.512V69.112H232.724ZM233.492 69.112V69.512C233.492 71.784 235.86 73.48 239.204 73.832L239.796 72.52C236.916 72.232 234.964 70.936 234.964 69.512V69.112H233.492ZM228.452 68.424V69.768H239.268V68.424H228.452Z" fill="#363636"/>
<path d="M181.275 94.436V107.092H182.437V94.436H181.275ZM177.565 95.794V95.99C177.565 99.35 175.871 102.038 172.217 103.802L172.833 104.74C177.061 102.668 178.713 99.462 178.713 95.794H177.565ZM172.791 95.794V96.746H178.069V95.794H172.791ZM189.898 95.626V96.004C189.898 97.558 187.868 98.818 185.628 99.112L186.062 100.05C188.652 99.658 190.934 98.146 190.934 96.004V95.626H189.898ZM190.388 95.626V96.004C190.388 98.146 192.67 99.658 195.246 100.05L195.694 99.112C193.454 98.818 191.41 97.544 191.41 96.004V95.626H190.388ZM185.978 95.052V95.99H195.344V95.052H185.978ZM186.412 105.86V106.812H195.106V105.86H186.412ZM186.412 103.242V106.238H187.574V103.242H186.412ZM184.928 101.268V102.206H196.408V101.268H184.928ZM190.066 99.168V101.646H191.214V99.168H190.066ZM202.721 97.95V98.888H205.535V97.95H202.721ZM202.623 101.128V102.066H205.507V101.128H202.623ZM207.453 94.436V107.092H208.573V94.436H207.453ZM204.919 94.758V106.448H206.011V94.758H204.919ZM202.091 96.032V96.242C202.091 99.224 200.761 101.744 197.807 103.536L198.479 104.362C201.881 102.332 203.211 99.35 203.211 96.032H202.091ZM198.367 96.032V96.984H202.553V96.032H198.367ZM213.948 95.948V96.69C213.948 98.412 212.632 99.91 210.756 100.512L211.33 101.422C213.444 100.722 214.9 98.916 214.9 96.69V95.948H213.948ZM214.158 95.948V96.69C214.158 98.804 215.572 100.54 217.672 101.212L218.218 100.302C216.37 99.728 215.11 98.3 215.11 96.69V95.948H214.158ZM211.134 95.598V96.564H217.91V95.598H211.134ZM213.948 100.89V103.83H215.11V100.89H213.948ZM220.08 99.686V100.666H222.418V99.686H220.08ZM219.254 94.436V107.092H220.416V94.436H219.254ZM210.7 104.446C212.884 104.46 215.852 104.446 218.554 103.97L218.456 103.102C215.852 103.48 212.772 103.48 210.546 103.48L210.7 104.446ZM232.777 94.45V103.69H233.953V94.45H232.777ZM225.819 105.86V106.812H234.331V105.86H225.819ZM225.819 102.738V106.182H226.967V102.738H225.819ZM227.163 95.318C225.273 95.318 223.859 96.606 223.859 98.44C223.859 100.26 225.273 101.562 227.163 101.562C229.053 101.562 230.453 100.26 230.453 98.44C230.453 96.606 229.053 95.318 227.163 95.318ZM227.163 96.326C228.395 96.326 229.333 97.194 229.333 98.44C229.333 99.672 228.395 100.54 227.163 100.54C225.931 100.54 224.993 99.672 224.993 98.44C224.993 97.194 225.931 96.326 227.163 96.326ZM236.444 100.456V101.394H247.882V100.456H236.444ZM242.156 102.486C239.454 102.486 237.816 103.326 237.816 104.782C237.816 106.238 239.454 107.064 242.156 107.064C244.858 107.064 246.496 106.238 246.496 104.782C246.496 103.326 244.858 102.486 242.156 102.486ZM242.156 103.41C244.144 103.41 245.32 103.9 245.32 104.782C245.32 105.65 244.144 106.154 242.156 106.154C240.182 106.154 238.992 105.65 238.992 104.782C238.992 103.9 240.182 103.41 242.156 103.41ZM241.414 95.584V95.962C241.414 97.39 239.356 98.524 237.088 98.776L237.508 99.686C240.126 99.378 242.45 97.992 242.45 95.962V95.584H241.414ZM241.904 95.584V95.962C241.904 97.992 244.214 99.378 246.832 99.686L247.252 98.776C244.984 98.524 242.926 97.39 242.926 95.962V95.584H241.904ZM237.494 95.08V96.018H246.86V95.08H237.494Z" fill="#868686"/>
</svg>
