<svg width="420" height="120" viewBox="0 0 420 120" fill="none" xmlns="http://www.w3.org/2000/svg">
<rect x="0.5" y="0.5" width="419" height="119" rx="7.5" fill="white"/>
<rect x="0.5" y="0.5" width="419" height="119" rx="7.5" stroke="#CED1D2"/>
<path d="M91.2 22H58.8C57.8059 22 57 22.6716 57 23.5V44.5C57 45.3284 57.8059 46 58.8 46H91.2C92.1941 46 93 45.3284 93 44.5V23.5C93 22.6716 92.1941 22 91.2 22Z" fill="white" stroke="#363636" stroke-width="1.5" stroke-linejoin="round"/>
<path d="M81.9746 34.4612C82.8697 34.4612 83.7282 34.0965 84.3611 33.4473C84.994 32.7981 85.3496 31.9177 85.3496 30.9996C85.3496 30.0816 84.994 29.2011 84.3611 28.5519C83.7282 27.9028 82.8697 27.5381 81.9746 27.5381C81.0795 27.5381 80.2211 27.9028 79.5881 28.5519C78.9552 29.2011 78.5996 30.0816 78.5996 30.9996C78.5996 31.9177 78.9552 32.7981 79.5881 33.4473C80.2211 34.0965 81.0795 34.4612 81.9746 34.4612V34.4612Z" stroke="#373EFF" stroke-width="1.5" stroke-linejoin="round"/>
<path d="M87.1496 39.9994C87.1496 38.5305 86.5807 37.1218 85.568 36.0831C84.5553 35.0445 83.1818 34.4609 81.7496 34.4609C80.3174 34.4609 78.9439 35.0445 77.9312 36.0831C76.9185 37.1218 76.3496 38.5305 76.3496 39.9994" stroke="#373EFF" stroke-width="1.5" stroke-linecap="round" stroke-linejoin="round"/>
<path d="M62.8496 35.3848H71.8496" stroke="#363636" stroke-width="1.5" stroke-linecap="round" stroke-linejoin="round"/>
<path d="M62.8496 39.0762H71.8496" stroke="#363636" stroke-width="1.5" stroke-linecap="round" stroke-linejoin="round"/>
<path d="M62.8496 29.3848H68.0471" stroke="#363636" stroke-width="1.5" stroke-linecap="round" stroke-linejoin="round"/>
<path d="M47.5103 67.72V78.408H49.1903V67.72H47.5103ZM39.6383 80.68V82.04H49.6063V80.68H39.6383ZM39.6383 77.4V81.352H41.3183V77.4H39.6383ZM40.7743 68.52V69.976C40.7743 72.088 39.5103 74.184 37.1903 75.032L38.0543 76.376C40.6783 75.384 42.1663 72.824 42.1663 69.976V68.52H40.7743ZM41.0943 68.52V69.976C41.0943 72.776 42.5663 75.176 45.1423 76.104L46.0063 74.776C43.7343 73.992 42.4703 72.04 42.4703 69.976V68.52H41.0943ZM51.845 75.32V76.664H65.093V75.32H51.845ZM57.765 76.024V79.256H59.429V76.024H57.765ZM53.461 80.68V82.04H63.621V80.68H53.461ZM53.461 78.04V81.224H55.125V78.04H53.461ZM53.573 68.168V74.088H63.365V68.168H61.701V69.864H55.221V68.168H53.573ZM55.221 71.144H61.701V72.76H55.221V71.144ZM66.5638 74.568V75.912H79.7798V74.568H66.5638ZM73.1558 76.968C70.0198 76.968 68.1158 77.944 68.1158 79.64C68.1158 81.336 70.0198 82.312 73.1558 82.312C76.2918 82.312 78.1958 81.336 78.1958 79.64C78.1958 77.944 76.2918 76.968 73.1558 76.968ZM73.1558 78.28C75.2998 78.28 76.4998 78.744 76.4998 79.64C76.4998 80.536 75.2998 81 73.1558 81C71.0118 81 69.8118 80.536 69.8118 79.64C69.8118 78.744 71.0118 78.28 73.1558 78.28ZM72.0518 69.112V69.512C72.0518 70.936 70.0998 72.232 67.2358 72.52L67.8118 73.832C71.1718 73.48 73.5398 71.784 73.5398 69.512V69.112H72.0518ZM72.8198 69.112V69.512C72.8198 71.784 75.1878 73.48 78.5318 73.832L79.1238 72.52C76.2438 72.232 74.2917 70.936 74.2917 69.512V69.112H72.8198ZM67.7798 68.424V69.768H78.5958V68.424H67.7798ZM95.2603 67.72V78.312H96.9403V67.72H95.2603ZM87.3883 80.68V82.04H97.3563V80.68H87.3883ZM87.3883 77.24V81.192H89.0683V77.24H87.3883ZM89.0523 68.696C86.8443 68.696 85.1643 70.2 85.1643 72.344C85.1643 74.456 86.8443 75.992 89.0523 75.992C91.2603 75.992 92.9243 74.456 92.9243 72.344C92.9243 70.2 91.2603 68.696 89.0523 68.696ZM89.0523 70.136C90.3323 70.136 91.2923 71 91.2923 72.344C91.2923 73.656 90.3323 74.52 89.0523 74.52C87.7723 74.52 86.7963 73.656 86.7963 72.344C86.7963 71 87.7723 70.136 89.0523 70.136ZM99.595 74.568V75.912H112.811V74.568H99.595ZM106.187 76.968C103.051 76.968 101.147 77.944 101.147 79.64C101.147 81.336 103.051 82.312 106.187 82.312C109.323 82.312 111.227 81.336 111.227 79.64C111.227 77.944 109.323 76.968 106.187 76.968ZM106.187 78.28C108.331 78.28 109.531 78.744 109.531 79.64C109.531 80.536 108.331 81 106.187 81C104.043 81 102.843 80.536 102.843 79.64C102.843 78.744 104.043 78.28 106.187 78.28ZM105.083 69.112V69.512C105.083 70.936 103.131 72.232 100.267 72.52L100.843 73.832C104.203 73.48 106.571 71.784 106.571 69.512V69.112H105.083ZM105.851 69.112V69.512C105.851 71.784 108.219 73.48 111.563 73.832L112.155 72.52C109.275 72.232 107.323 70.936 107.323 69.512V69.112H105.851ZM100.811 68.424V69.768H111.627V68.424H100.811Z" fill="#363636"/>
<path d="M33.7506 106.196C36.3266 106.196 38.1186 104.124 38.1186 100.834C38.1186 97.558 36.3266 95.556 33.7506 95.556C31.1606 95.556 29.3686 97.544 29.3686 100.834C29.3686 104.124 31.1606 106.196 33.7506 106.196ZM33.7506 105.048C31.9026 105.048 30.6986 103.396 30.6986 100.834C30.6986 98.272 31.9026 96.69 33.7506 96.69C35.5846 96.69 36.8026 98.272 36.8026 100.834C36.8026 103.396 35.5846 105.048 33.7506 105.048ZM44.2253 106.196C45.5553 106.196 46.5493 105.664 47.3613 104.712L46.6613 103.9C46.0033 104.628 45.2473 105.048 44.2813 105.048C42.3213 105.048 41.0893 103.438 41.0893 100.848C41.0893 98.286 42.3773 96.69 44.3233 96.69C45.1913 96.69 45.8773 97.082 46.4093 97.656L47.1233 96.816C46.5213 96.158 45.5553 95.556 44.3093 95.556C41.7053 95.556 39.7593 97.572 39.7593 100.876C39.7593 104.208 41.6633 106.196 44.2253 106.196ZM49.275 106H50.577V101.66H52.481C54.567 101.66 56.065 100.68 56.065 98.622C56.065 96.494 54.567 95.738 52.481 95.738H49.275V106ZM50.577 100.61V96.802H52.299C53.895 96.802 54.777 97.278 54.777 98.622C54.777 99.952 53.895 100.61 52.299 100.61H50.577ZM54.917 106H56.373L53.237 100.638L52.229 101.31L54.917 106ZM64.4514 109.92H65.3474V94.268H64.4514V109.92ZM73.9877 95.822V97.11C73.9877 98.916 72.6997 100.554 70.7957 101.226L71.3977 102.15C73.5257 101.38 74.9537 99.434 74.9537 97.11V95.822H73.9877ZM74.2117 95.822V97.11C74.2117 99.336 75.6677 101.184 77.7677 101.898L78.3697 100.988C76.4937 100.358 75.1777 98.818 75.1777 97.11V95.822H74.2117ZM71.1037 95.486V96.424H78.0337V95.486H71.1037ZM79.8257 94.45V103.704H81.0017V94.45H79.8257ZM72.8677 105.86V106.812H81.3797V105.86H72.8677ZM72.8677 102.836V106.28H74.0157V102.836H72.8677ZM87.6366 95.024C85.7606 95.024 84.4166 96.074 84.4166 97.628C84.4166 99.168 85.7606 100.246 87.6366 100.246C89.5266 100.246 90.8706 99.168 90.8706 97.628C90.8706 96.074 89.5266 95.024 87.6366 95.024ZM87.6366 95.99C88.8686 95.99 89.7506 96.662 89.7506 97.628C89.7506 98.608 88.8686 99.266 87.6366 99.266C86.4046 99.266 85.5226 98.608 85.5226 97.628C85.5226 96.662 86.4046 95.99 87.6366 95.99ZM87.1186 101.646V106.7H88.2806V101.646H87.1186ZM92.7186 94.436V107.106H93.8666V94.436H92.7186ZM83.6326 102.276C85.9426 102.276 89.0506 102.234 91.9066 101.716L91.8226 100.848C89.0366 101.268 85.8306 101.296 83.4786 101.296L83.6326 102.276ZM99.6895 100.372V101.996H100.852V100.372H99.6895ZM105.024 94.45V102.934H106.186V94.45H105.024ZM105.696 98.272V99.238H108.034V98.272H105.696ZM96.4555 102.57C98.6675 102.556 101.664 102.542 104.366 102.066L104.268 101.24C101.65 101.618 98.5695 101.618 96.3015 101.618L96.4555 102.57ZM97.8695 103.564V104.488H105.024V107.092H106.186V103.564H97.8695ZM96.6235 95.584V96.452H103.89V95.584H96.6235ZM100.264 96.942C98.4715 96.942 97.3095 97.656 97.3095 98.818C97.3095 99.98 98.4715 100.694 100.264 100.694C102.042 100.694 103.204 99.98 103.204 98.818C103.204 97.656 102.042 96.942 100.264 96.942ZM100.264 97.74C101.384 97.74 102.112 98.146 102.112 98.818C102.112 99.462 101.384 99.882 100.264 99.882C99.1295 99.882 98.4015 99.462 98.4015 98.818C98.4015 98.146 99.1295 97.74 100.264 97.74ZM99.6895 94.338V96.004H100.852V94.338H99.6895ZM118.462 94.45V103.69H119.638V94.45H118.462ZM111.504 105.86V106.812H120.016V105.86H111.504ZM111.504 102.738V106.182H112.652V102.738H111.504ZM112.848 95.318C110.958 95.318 109.544 96.606 109.544 98.44C109.544 100.26 110.958 101.562 112.848 101.562C114.738 101.562 116.138 100.26 116.138 98.44C116.138 96.606 114.738 95.318 112.848 95.318ZM112.848 96.326C114.08 96.326 115.018 97.194 115.018 98.44C115.018 99.672 114.08 100.54 112.848 100.54C111.616 100.54 110.678 99.672 110.678 98.44C110.678 97.194 111.616 96.326 112.848 96.326Z" fill="#868686"/>
<path d="M223.25 34C223.25 41.3178 217.318 47.25 210 47.25C202.682 47.25 196.75 41.3178 196.75 34C196.75 26.6822 202.682 20.75 210 20.75C217.318 20.75 223.25 26.6822 223.25 34Z" stroke="#5F65FF" stroke-width="1.5"/>
<line x1="205.724" y1="29.4883" x2="205.724" y2="30.9108" stroke="#5F65FF" stroke-width="1.5" stroke-linecap="round"/>
<line x1="213.738" y1="29.4883" x2="213.738" y2="30.9108" stroke="#5F65FF" stroke-width="1.5" stroke-linecap="round"/>
<path d="M210.014 32.456L208.98 33.4893L210.014 34.5225" stroke="#5F65FF" stroke-width="1.5" stroke-linecap="round" stroke-linejoin="round"/>
<path d="M214.574 37.0449C214.111 37.6867 212.527 39.383 209.898 39.383C207.269 39.383 205.685 37.6867 205.222 37.0449" stroke="#5F65FF" stroke-width="1.5" stroke-linecap="round"/>
<path d="M191.731 67.704V75.08H193.395V67.704H191.731ZM188.515 70.792V72.152H192.419V70.792H188.515ZM185.299 68.152C183.107 68.152 181.491 69.528 181.491 71.496C181.491 73.448 183.107 74.84 185.299 74.84C187.491 74.84 189.107 73.448 189.107 71.496C189.107 69.528 187.491 68.152 185.299 68.152ZM185.299 69.528C186.563 69.528 187.491 70.312 187.491 71.496C187.491 72.696 186.563 73.48 185.299 73.48C184.035 73.48 183.091 72.696 183.091 71.496C183.091 70.312 184.035 69.528 185.299 69.528ZM183.875 75.8V77.112H191.747V78.296H183.907V81.544H185.555V79.528H193.395V75.8H183.875ZM183.907 80.824V82.152H193.891V80.824H183.907ZM197.665 68.28V69.608H207.009V68.28H197.665ZM196.017 72.856V74.2H209.265V72.856H196.017ZM201.777 73.56V76.44H203.441V73.56H201.777ZM205.969 68.28V69.24C205.969 70.264 205.969 71.48 205.585 73.208L207.233 73.368C207.617 71.64 207.617 70.28 207.617 69.24V68.28H205.969ZM197.537 75.832V77.144H205.953V78.392H197.553V81.368H199.233V79.56H207.617V75.832H197.537ZM197.553 80.872V82.184H208.001V80.872H197.553ZM214.32 74.488V76.456H216V74.488H214.32ZM220.496 67.72V77.592H222.176V67.72H220.496ZM221.536 72.024V73.416H224.176V72.024H221.536ZM210.8 77.224C213.36 77.208 216.768 77.192 219.856 76.648L219.728 75.48C216.736 75.88 213.216 75.896 210.608 75.896L210.8 77.224ZM212.432 78.248V79.56H220.496V82.328H222.176V78.248H212.432ZM210.976 68.92V70.152H219.328V68.92H210.976ZM215.152 70.616C213.04 70.616 211.68 71.448 211.68 72.776C211.68 74.12 213.04 74.952 215.152 74.952C217.248 74.952 218.624 74.12 218.624 72.776C218.624 71.448 217.248 70.616 215.152 70.616ZM215.152 71.736C216.32 71.736 217.04 72.104 217.04 72.776C217.04 73.432 216.32 73.832 215.152 73.832C213.984 73.832 213.264 73.432 213.264 72.776C213.264 72.104 213.984 71.736 215.152 71.736ZM214.32 67.592V69.496H216V67.592H214.32ZM235.823 67.72V78.312H237.503V67.72H235.823ZM227.951 80.68V82.04H237.919V80.68H227.951ZM227.951 77.24V81.192H229.631V77.24H227.951ZM229.615 68.696C227.407 68.696 225.727 70.2 225.727 72.344C225.727 74.456 227.407 75.992 229.615 75.992C231.823 75.992 233.487 74.456 233.487 72.344C233.487 70.2 231.823 68.696 229.615 68.696ZM229.615 70.136C230.895 70.136 231.855 71 231.855 72.344C231.855 73.656 230.895 74.52 229.615 74.52C228.335 74.52 227.359 73.656 227.359 72.344C227.359 71 228.335 70.136 229.615 70.136Z" fill="#363636"/>
<path d="M170.509 94.422V107.106H171.671V94.422H170.509ZM162.039 95.5V104.054H168.003V95.5H166.841V98.846H163.187V95.5H162.039ZM163.187 99.77H166.841V103.102H163.187V99.77ZM174.68 95.696V96.662H182.828V95.696H174.68ZM173.504 104.362V105.328H184.942V104.362H173.504ZM176.304 100.176V104.712H177.452V100.176H176.304ZM182.45 95.696V97.096C182.45 98.664 182.45 100.344 182.002 102.584L183.164 102.724C183.598 100.358 183.598 98.706 183.598 97.096V95.696H182.45ZM179.426 100.176V104.712H180.574V100.176H179.426ZM191.273 109.92H192.169V94.268H191.273V109.92ZM207.048 94.422V107.106H208.21V94.422H207.048ZM207.93 99.462V100.442H210.282V99.462H207.93ZM198.984 103.088V104.054H199.992C202.414 104.054 204.094 103.956 206.068 103.606L205.942 102.64C204.024 103.004 202.372 103.088 199.992 103.088H198.984ZM198.956 95.612V96.564H203.534V99.196H198.984V103.48H200.132V100.148H204.682V95.612H198.956ZM219.843 94.422V107.106H221.005V94.422H219.843ZM214.327 95.402C212.465 95.402 211.121 97.124 211.121 99.812C211.121 102.514 212.465 104.236 214.327 104.236C216.203 104.236 217.547 102.514 217.547 99.812C217.547 97.124 216.203 95.402 214.327 95.402ZM214.327 96.452C215.573 96.452 216.427 97.768 216.427 99.812C216.427 101.87 215.573 103.214 214.327 103.214C213.095 103.214 212.227 101.87 212.227 99.812C212.227 97.768 213.095 96.452 214.327 96.452ZM222.838 104.446V105.426H234.304V104.446H222.838ZM224.182 95.346V101.94H232.932V95.346H231.784V97.67H225.33V95.346H224.182ZM225.33 98.608H231.784V100.988H225.33V98.608ZM244.215 94.436V107.092H245.377V94.436H244.215ZM235.815 95.668V103.508H236.963V95.668H235.815ZM235.815 102.822V103.83H236.851C238.853 103.83 240.855 103.676 243.053 103.228L242.913 102.234C240.771 102.682 238.769 102.822 236.851 102.822H235.815ZM252.264 95.304V96.27C252.264 98.426 249.884 100.358 247.658 100.778L248.176 101.744C250.71 101.17 253.272 99.028 253.272 96.27V95.304H252.264ZM252.474 95.304V96.27C252.474 99.042 255.05 101.17 257.57 101.744L258.088 100.778C255.876 100.358 253.482 98.44 253.482 96.27V95.304H252.474ZM247.196 104.432V105.384H258.662V104.432H247.196Z" fill="#868686"/>
<path d="M358.25 34C358.25 41.3178 352.318 47.25 345 47.25C337.682 47.25 331.75 41.3178 331.75 34C331.75 26.6822 337.682 20.75 345 20.75C352.318 20.75 358.25 26.6822 358.25 34Z" stroke="#5F65FF" stroke-width="1.5"/>
<path d="M338.898 29.4922L341.792 39.7796L344.685 29.4922" stroke="#5F65FF" stroke-width="2" stroke-linecap="round" stroke-linejoin="round"/>
<path d="M344.688 29.4922L347.581 39.7796L350.474 29.4922" stroke="#5F65FF" stroke-width="2" stroke-linecap="round" stroke-linejoin="round"/>
<path d="M338.258 33.2793H344.687H351.117" stroke="#5F65FF" stroke-width="2" stroke-linecap="round" stroke-linejoin="round"/>
<path d="M320.15 71.672V73.016H323.27V71.672H320.15ZM320.054 75.336V76.68H323.222V75.336H320.054ZM325.382 67.704V82.328H326.998V67.704H325.382ZM322.422 68.056V81.624H323.99V68.056H322.422ZM319.142 69.496V69.816C319.142 73.304 317.766 76.008 314.39 78.04L315.35 79.224C319.35 76.856 320.758 73.464 320.758 69.496H319.142ZM315.126 69.496V70.856H319.75V69.496H315.126ZM332.772 69.448V70.28C332.772 72.152 331.46 73.864 329.204 74.552L330.036 75.864C332.612 75.048 334.132 72.872 334.132 70.28V69.448H332.772ZM333.092 69.448V70.28C333.092 72.744 334.58 74.824 337.14 75.608L337.94 74.312C335.716 73.64 334.468 72.024 334.468 70.28V69.448H333.092ZM329.684 68.968V70.344H337.54V68.968H329.684ZM332.788 75.24V78.536H334.452V75.24H332.788ZM340.084 73.64V75.032H342.724V73.64H340.084ZM338.9 67.704V82.328H340.58V67.704H338.9ZM329.252 79.4C331.748 79.4 335.092 79.4 338.18 78.84L338.052 77.608C335.092 78.024 331.588 78.024 329.044 78.024L329.252 79.4ZM357.901 67.72V78.312H359.581V67.72H357.901ZM350.029 80.68V82.04H359.997V80.68H350.029ZM350.029 77.24V81.192H351.709V77.24H350.029ZM351.693 68.696C349.485 68.696 347.805 70.2 347.805 72.344C347.805 74.456 349.485 75.992 351.693 75.992C353.901 75.992 355.565 74.456 355.565 72.344C355.565 70.2 353.901 68.696 351.693 68.696ZM351.693 70.136C352.973 70.136 353.933 71 353.933 72.344C353.933 73.656 352.973 74.52 351.693 74.52C350.413 74.52 349.437 73.656 349.437 72.344C349.437 71 350.413 70.136 351.693 70.136ZM362.236 74.568V75.912H375.452V74.568H362.236ZM368.828 76.968C365.692 76.968 363.788 77.944 363.788 79.64C363.788 81.336 365.692 82.312 368.828 82.312C371.964 82.312 373.868 81.336 373.868 79.64C373.868 77.944 371.964 76.968 368.828 76.968ZM368.828 78.28C370.972 78.28 372.172 78.744 372.172 79.64C372.172 80.536 370.972 81 368.828 81C366.684 81 365.484 80.536 365.484 79.64C365.484 78.744 366.684 78.28 368.828 78.28ZM367.724 69.112V69.512C367.724 70.936 365.772 72.232 362.908 72.52L363.484 73.832C366.844 73.48 369.212 71.784 369.212 69.512V69.112H367.724ZM368.492 69.112V69.512C368.492 71.784 370.86 73.48 374.204 73.832L374.796 72.52C371.916 72.232 369.964 70.936 369.964 69.512V69.112H368.492ZM363.452 68.424V69.768H374.268V68.424H363.452Z" fill="#363636"/>
<path d="M316.275 94.436V107.092H317.437V94.436H316.275ZM312.565 95.794V95.99C312.565 99.35 310.871 102.038 307.217 103.802L307.833 104.74C312.061 102.668 313.713 99.462 313.713 95.794H312.565ZM307.791 95.794V96.746H313.069V95.794H307.791ZM324.898 95.626V96.004C324.898 97.558 322.868 98.818 320.628 99.112L321.062 100.05C323.652 99.658 325.934 98.146 325.934 96.004V95.626H324.898ZM325.388 95.626V96.004C325.388 98.146 327.67 99.658 330.246 100.05L330.694 99.112C328.454 98.818 326.41 97.544 326.41 96.004V95.626H325.388ZM320.978 95.052V95.99H330.344V95.052H320.978ZM321.412 105.86V106.812H330.106V105.86H321.412ZM321.412 103.242V106.238H322.574V103.242H321.412ZM319.928 101.268V102.206H331.408V101.268H319.928ZM325.066 99.168V101.646H326.214V99.168H325.066ZM337.721 97.95V98.888H340.535V97.95H337.721ZM337.623 101.128V102.066H340.507V101.128H337.623ZM342.453 94.436V107.092H343.573V94.436H342.453ZM339.919 94.758V106.448H341.011V94.758H339.919ZM337.091 96.032V96.242C337.091 99.224 335.761 101.744 332.807 103.536L333.479 104.362C336.881 102.332 338.211 99.35 338.211 96.032H337.091ZM333.367 96.032V96.984H337.553V96.032H333.367ZM348.948 95.948V96.69C348.948 98.412 347.632 99.91 345.756 100.512L346.33 101.422C348.444 100.722 349.9 98.916 349.9 96.69V95.948H348.948ZM349.158 95.948V96.69C349.158 98.804 350.572 100.54 352.672 101.212L353.218 100.302C351.37 99.728 350.11 98.3 350.11 96.69V95.948H349.158ZM346.134 95.598V96.564H352.91V95.598H346.134ZM348.948 100.89V103.83H350.11V100.89H348.948ZM355.08 99.686V100.666H357.418V99.686H355.08ZM354.254 94.436V107.092H355.416V94.436H354.254ZM345.7 104.446C347.884 104.46 350.852 104.446 353.554 103.97L353.456 103.102C350.852 103.48 347.772 103.48 345.546 103.48L345.7 104.446ZM367.777 94.45V103.69H368.953V94.45H367.777ZM360.819 105.86V106.812H369.331V105.86H360.819ZM360.819 102.738V106.182H361.967V102.738H360.819ZM362.163 95.318C360.273 95.318 358.859 96.606 358.859 98.44C358.859 100.26 360.273 101.562 362.163 101.562C364.053 101.562 365.453 100.26 365.453 98.44C365.453 96.606 364.053 95.318 362.163 95.318ZM362.163 96.326C363.395 96.326 364.333 97.194 364.333 98.44C364.333 99.672 363.395 100.54 362.163 100.54C360.931 100.54 359.993 99.672 359.993 98.44C359.993 97.194 360.931 96.326 362.163 96.326ZM371.444 100.456V101.394H382.882V100.456H371.444ZM377.156 102.486C374.454 102.486 372.816 103.326 372.816 104.782C372.816 106.238 374.454 107.064 377.156 107.064C379.858 107.064 381.496 106.238 381.496 104.782C381.496 103.326 379.858 102.486 377.156 102.486ZM377.156 103.41C379.144 103.41 380.32 103.9 380.32 104.782C380.32 105.65 379.144 106.154 377.156 106.154C375.182 106.154 373.992 105.65 373.992 104.782C373.992 103.9 375.182 103.41 377.156 103.41ZM376.414 95.584V95.962C376.414 97.39 374.356 98.524 372.088 98.776L372.508 99.686C375.126 99.378 377.45 97.992 377.45 95.962V95.584H376.414ZM376.904 95.584V95.962C376.904 97.992 379.214 99.378 381.832 99.686L382.252 98.776C379.984 98.524 377.926 97.39 377.926 95.962V95.584H376.904ZM372.494 95.08V96.018H381.86V95.08H372.494Z" fill="#868686"/>
</svg>
